<?xml version="1.0" encoding="UTF-8"?>
<svg id="expanded" xmlns="http://www.w3.org/2000/svg" version="1.1" viewBox="0 0 1057.2 1080">
  <defs>
    <style>
      .cls-1 {
        fill: #4dd8ff;
      }

      .cls-1, .cls-2 {
        stroke-width: 0px;
      }

      .cls-2 {
        fill: #fff;
      }
    </style>
  </defs>
  <ellipse class="cls-2" cx="758.2" cy="656.7" rx="147" ry="99.9" transform="translate(-189.6 985) rotate(-60)"/>
  <ellipse class="cls-2" cx="308.6" cy="656.7" rx="99.9" ry="147" transform="translate(-287 242.3) rotate(-30)"/>
  <path class="cls-1" d="M941.4,237.9L586.9,36.9c-36.2-20.5-80.5-20.5-116.7,0L115.8,237.9c-37.1,21-60,60.3-60,102.9v398.3c0,42.6,22.9,81.9,60,102.9l354.4,201c36.2,20.5,80.5,20.5,116.7,0l354.4-201c37.1-21,60-60.3,60-102.9v-398.3c0-42.6-22.9-81.9-60-102.9h0ZM417.5,843.8c-85.2,49.2-206.5-1.5-270.9-113.1-64.5-111.6-47.7-242,37.5-291.2,85.2-49.2,206.5,1.5,270.9,113.1,64.5,111.6,47.7,242-37.5,291.2ZM912.4,730.7c-64.5,111.6-185.7,162.3-270.9,113.1s-102-179.5-37.5-291.2c64.5-111.6,185.7-162.3,270.9-113.1,85.2,49.2,102,179.5,37.5,291.2h0Z"/>
</svg>